<svg id="Layer_1" data-name="Layer 1" xmlns="http://www.w3.org/2000/svg" viewBox="0 0 24.67 10.41"><defs><style>.cls-1{fill:#fff;fill-rule:evenodd;}</style></defs><polygon class="cls-1" points="5.88 3.46 3.31 3.46 3.31 6.95 5.96 6.95 5.96 6.33 4.03 6.33 4.03 5.43 5.73 5.43 5.73 4.81 4.03 4.81 4.03 4.08 5.88 4.08 5.88 3.46"/><path class="cls-1" d="M9.5,5.77A1.38,1.38,0,0,0,8,4.54,1.61,1.61,0,0,0,6.37,6.13a2.29,2.29,0,0,0,0,.25A1.56,1.56,0,0,0,8,8.17,1.45,1.45,0,0,0,9.5,6.92H8.78A.76.76,0,0,1,8,7.58c-.61,0-.86-.57-.86-1.19,0-1,.51-1.22.86-1.22a.71.71,0,0,1,.78.6Z" transform="translate(0 -1.17)"/><path class="cls-1" d="M14.26,6.17V5.23h.91c.43,0,.51.27.51.46s-.18.48-.56.48Zm-.71,2h.71V6.75H15c.54,0,.56.19.56.66a2.5,2.5,0,0,0,.08.71h.81V8c-.16-.06-.16-.19-.16-.7s-.15-.76-.44-.88a.85.85,0,0,0,.54-.83,1,1,0,0,0-1-1H13.55Z" transform="translate(0 -1.17)"/><polygon class="cls-1" points="19.62 3.46 17.06 3.46 17.06 6.95 19.7 6.95 19.7 6.33 17.77 6.33 17.77 5.43 19.47 5.43 19.47 4.81 17.77 4.81 17.77 4.08 19.62 4.08 19.62 3.46"/><path class="cls-1" d="M21,6.26v-1h.58c.45,0,.64.14.64.48a.47.47,0,0,1-.4.54h-.14Zm0,.6h.84a1.07,1.07,0,0,0,1.16-1V5.75a1,1,0,0,0-.87-1.12H20.3V8.17H21Z" transform="translate(0 -1.17)"/><path class="cls-1" d="M11.85,10.61V2.17H1v8.44Zm1-8.48v8.48H23.71V2.17ZM0,1.17H24.67V11.58H0Z" transform="translate(0 -1.17)"/></svg>