<svg id="e36g70jgd1ck1" xmlns="http://www.w3.org/2000/svg" xmlns:xlink="http://www.w3.org/1999/xlink" viewBox="0 0 154.500000 45.900000" shape-rendering="geometricPrecision" text-rendering="geometricPrecision"><style><![CDATA[#e36g70jgd1ck2 {animation: e36g70jgd1ck2_c_o 3000ms linear 1 normal forwards}@keyframes e36g70jgd1ck2_c_o { 0% {opacity: 0} 80% {opacity: 1} 100% {opacity: 1} }]]></style><g id="e36g70jgd1ck2" opacity="0"><path id="e36g70jgd1ck3" d="M12.400000,17.900000L18.100000,17.900000L15.400000,10.500000L12.400000,17.900000ZM0,25.100000L9.900000,4.100000L21.100000,4.100000L30.300000,25.200000L20.700000,25.200000L20,23L10.300000,23L9.500000,25.100000L0,25.100000ZM40.800000,19.900000L47.100000,19.900000C48,20,49,19.800000,49.900000,19.500000C50.400000,19.200000,50.600000,18.700000,50.600000,18.100000C50.700000,17.600000,50.400000,17,49.900000,16.700000C49,16.400000,48.100000,16.300000,47.100000,16.300000L40.800000,16.300000L40.800000,19.900000ZM40.800000,9L40.800000,12L46.700000,12C47.500000,12.100000,48.400000,12,49.200000,11.700000C49.600000,11.500000,49.800000,11,49.800000,10.500000C49.900000,10,49.700000,9.600000,49.300000,9.300000C48.500000,9,47.600000,8.900000,46.800000,8.900000L40.800000,8.900000ZM50.400000,4.100000C53.600000,4.100000,55.900000,4.500000,57.200000,5.300000C58.600000,6.200000,59.300000,7.700000,59.200000,9.300000C59.200000,10.300000,58.900000,11.200000,58.400000,12C57.800000,12.800000,57,13.500000,56.100000,13.900000C57.300000,14.200000,58.300000,14.900000,59.100000,15.800000C59.800000,16.800000,60.100000,17.900000,60.100000,19.100000C60.200000,20.900000,59.400000,22.600000,58,23.600000C56.600000,24.600000,54.400000,25.100000,51.600000,25.100000L32,25.100000L32,4.100000L50.400000,4.100000ZM63.800000,25.100000L63.800000,4.100000L74.300000,4.100000L83.100000,16.200000L83.100000,4.100000L91.700000,4.100000L91.700000,25.200000L81.800000,25.200000L72.200000,12.900000L72.200000,25.200000L63.800000,25.200000Z" fill="rgb(39,61,112)" stroke="none" stroke-width="1"/><path id="e36g70jgd1ck4" d="M98.500000,12.100000L139.900000,4C140.300000,3.800000,140.200000,3.500000,139.800000,3.400000L106.300000,4.100000L98.200000,11.500000C98,11.800000,98.100000,12.100000,98.500000,12.100000" fill="rgb(39,61,112)" stroke="none" stroke-width="1"/><path id="e36g70jgd1ck5" d="M98.500000,18.700000L139.800000,10.600000C140.200000,10.400000,140.100000,10.100000,139.700000,10L106.200000,10.700000L98.100000,18.100000C98,18.400000,98.100000,18.700000,98.500000,18.700000" fill="rgb(110,121,165)" stroke="none" stroke-width="1"/><path id="e36g70jgd1ck6" d="M98.500000,25.300000L139.800000,17.200000C140.200000,17,140.100000,16.700000,139.700000,16.600000L106.200000,17.300000L98.100000,24.700000C98,24.900000,98.100000,25.300000,98.500000,25.300000" fill="rgb(195,198,212)" stroke="none" stroke-width="1"/><polygon id="e36g70jgd1ck7" points="95.300000,4.700000 94.600000,4.700000 94.600000,0.600000 93.200000,0.600000 93.200000,0 96.700000,0 96.700000,0.600000 95.300000,0.600000" fill="rgb(39,61,112)" stroke="none" stroke-width="1"/><polygon id="e36g70jgd1ck8" points="97.700000,4.700000 97.100000,4.700000 97.100000,0 98,0 99.400000,3.500000 100.600000,0 101.600000,0 101.600000,4.700000 100.900000,4.700000 101,1 99.600000,4.700000 99.100000,4.700000 97.700000,1.100000" fill="rgb(39,61,112)" stroke="none" stroke-width="1"/><path id="e36g70jgd1ck9" d="M2.500000,32.300000L3.900000,32.300000L3,36.500000L7.800000,36.500000L8.700000,32.300000L10,32.300000L7.900000,42.300000L6.500000,42.300000L7.500000,37.700000L2.700000,37.700000L1.700000,42.300000L0.300000,42.300000L2.500000,32.300000Z" fill="rgb(36,35,37)" stroke="none" stroke-width="1"/><path id="e36g70jgd1ck10" d="M12.600000,32.300000L18.100000,32.300000L17.800000,33.500000L13.700000,33.500000L13.100000,36.500000L17,36.500000L16.700000,37.700000L12.800000,37.700000L12.100000,41.200000L16.400000,41.200000L16.100000,42.400000L10.400000,42.400000L12.600000,32.300000Z" fill="rgb(36,35,37)" stroke="none" stroke-width="1"/><path id="e36g70jgd1ck11" d="M25.200000,32.300000L27.400000,42.300000L26,42.300000L25.500000,39.800000L20.400000,39.800000L18.800000,42.300000L17.300000,42.300000L23.900000,32.300000L25.200000,32.300000ZM21,38.700000L25.100000,38.700000C24.600000,36.100000,24.200000,34.400000,24.200000,33.600000L24.200000,33.600000C23.800000,34.300000,22.700000,36,21,38.700000Z" fill="rgb(36,35,37)" stroke="none" stroke-width="1"/><path id="e36g70jgd1ck12" d="M29.900000,32.300000L31.300000,32.300000L29.500000,41.100000L33.700000,41.100000L33.400000,42.300000L27.800000,42.300000L29.900000,32.300000Z" fill="rgb(36,35,37)" stroke="none" stroke-width="1"/><path id="e36g70jgd1ck13" d="M35.200000,32.300000L42.500000,32.300000L42.300000,33.500000L39.400000,33.400000L37.500000,42.300000L36.100000,42.300000L38,33.400000L35,33.500000L35.200000,32.300000Z" fill="rgb(36,35,37)" stroke="none" stroke-width="1"/><path id="e36g70jgd1ck14" d="M44.300000,32.300000L45.700000,32.300000L44.800000,36.500000L49.600000,36.500000L50.500000,32.300000L51.900000,32.300000L49.800000,42.300000L48.400000,42.300000L49.400000,37.700000L44.600000,37.700000L43.600000,42.300000L42.200000,42.300000L44.300000,32.300000Z" fill="rgb(36,35,37)" stroke="none" stroke-width="1"/><path id="e36g70jgd1ck15" d="M61.200000,32.700000L60.800000,33.900000C60.200000,33.600000,59.500000,33.400000,58.600000,33.400000C57.400000,33.400000,56.300000,33.800000,55.500000,34.700000C54.600000,35.600000,54.200000,36.600000,54.200000,37.900000C54.200000,38.900000,54.500000,39.700000,55.100000,40.300000C55.700000,40.900000,56.600000,41.200000,57.600000,41.200000C58.300000,41.200000,58.900000,41.100000,59.500000,40.900000L59.300000,42.200000C58.800000,42.400000,58.200000,42.400000,57.500000,42.400000C56.100000,42.400000,54.900000,42,54,41.200000C53.100000,40.400000,52.700000,39.400000,52.700000,38.100000C52.700000,36.400000,53.300000,35,54.400000,33.900000C55.500000,32.800000,57,32.200000,58.700000,32.200000C59.700000,32.200000,60.500000,32.400000,61.200000,32.700000Z" fill="rgb(36,35,37)" stroke="none" stroke-width="1"/><path id="e36g70jgd1ck16" d="M68.400000,32.300000L70.600000,42.300000L69.200000,42.300000L68.700000,39.800000L63.600000,39.800000L62,42.300000L60.500000,42.300000L67.100000,32.300000L68.400000,32.300000ZM64.200000,38.700000L68.300000,38.700000C67.800000,36.100000,67.400000,34.400000,67.400000,33.600000L67.400000,33.600000C66.900000,34.300000,65.900000,36,64.200000,38.700000Z" fill="rgb(36,35,37)" stroke="none" stroke-width="1"/><path id="e36g70jgd1ck17" d="M73.100000,32.300000L75,32.300000C75.400000,32.300000,75.700000,32.300000,76,32.300000C76.300000,32.300000,76.600000,32.400000,77,32.500000C77.400000,32.600000,77.700000,32.700000,77.900000,32.900000C78.100000,33.100000,78.300000,33.300000,78.500000,33.600000C78.700000,33.900000,78.700000,34.300000,78.700000,34.700000C78.700000,35.400000,78.500000,36,78,36.400000C77.500000,36.900000,76.900000,37.100000,76.100000,37.200000L76.100000,37.200000C76.400000,37.300000,76.700000,37.500000,76.800000,37.700000C77,38,77.100000,38.400000,77.300000,38.900000L78.200000,42.100000L76.800000,42.100000L76.100000,39.300000C76,38.800000,75.800000,38.500000,75.700000,38.300000C75.600000,38.100000,75.400000,37.900000,75.100000,37.800000C74.800000,37.700000,74.400000,37.600000,73.800000,37.600000L73.300000,37.600000L72.400000,42.100000L71,42.100000L73.100000,32.300000ZM74.200000,33.500000L73.500000,36.700000C73.600000,36.700000,73.800000,36.700000,74.100000,36.700000C74.600000,36.700000,75.100000,36.700000,75.400000,36.600000C75.700000,36.500000,76.100000,36.500000,76.400000,36.300000C76.700000,36.200000,76.900000,36,77.100000,35.700000C77.300000,35.400000,77.300000,35.100000,77.300000,34.800000C77.300000,34.500000,77.200000,34.300000,77.100000,34.100000C77,33.900000,76.800000,33.800000,76.500000,33.700000C76.200000,33.600000,76,33.600000,75.700000,33.500000C75.400000,33.400000,75.100000,33.500000,74.800000,33.500000L74.200000,33.500000Z" fill="rgb(36,35,37)" stroke="none" stroke-width="1"/><path id="e36g70jgd1ck18" d="M81.600000,32.300000L87.100000,32.300000L86.800000,33.500000L82.700000,33.500000L82.100000,36.500000L86,36.500000L85.700000,37.700000L81.800000,37.700000L81.100000,41.200000L85.400000,41.200000L85.100000,42.400000L79.400000,42.400000L81.600000,32.300000Z" fill="rgb(36,35,37)" stroke="none" stroke-width="1"/><path id="e36g70jgd1ck19" d="M101.800000,32.700000L101.400000,33.900000C100.900000,33.600000,100.300000,33.400000,99.500000,33.400000C98.900000,33.400000,98.400000,33.500000,98.100000,33.800000C97.700000,34.100000,97.500000,34.500000,97.500000,34.900000C97.500000,35.200000,97.600000,35.500000,97.800000,35.700000C98,35.900000,98.400000,36.200000,99,36.600000C99.700000,37,100.300000,37.400000,100.500000,37.900000C100.800000,38.300000,100.900000,38.800000,100.900000,39.400000C100.900000,40.300000,100.600000,41.100000,99.900000,41.600000C99.300000,42.200000,98.400000,42.400000,97.400000,42.400000C96.500000,42.400000,95.600000,42.200000,94.700000,41.800000L95.100000,40.600000C95.800000,41,96.600000,41.200000,97.300000,41.200000C97.900000,41.200000,98.500000,41,98.900000,40.700000C99.300000,40.400000,99.500000,39.900000,99.500000,39.400000C99.500000,39,99.400000,38.700000,99.100000,38.400000C98.900000,38.100000,98.500000,37.800000,97.900000,37.500000C97.100000,37.100000,96.600000,36.600000,96.300000,36.200000C96,35.800000,95.900000,35.300000,95.900000,34.800000C95.900000,34,96.200000,33.300000,96.900000,32.800000C97.600000,32.300000,98.400000,32,99.300000,32C100.300000,32.200000,101.100000,32.300000,101.800000,32.700000Z" fill="rgb(36,35,37)" stroke="none" stroke-width="1"/><path id="e36g70jgd1ck20" d="M103.500000,32.300000L105,32.300000C106.100000,34.800000,106.700000,36.300000,107,37L107,37C107.400000,36.400000,108.800000,34.900000,111,32.300000L112.700000,32.300000L107.500000,38.100000L106.600000,42.300000L105.200000,42.300000L106.100000,38.100000L103.500000,32.300000Z" fill="rgb(36,35,37)" stroke="none" stroke-width="1"/><path id="e36g70jgd1ck21" d="M117.800000,32.700000L117.400000,33.900000C116.900000,33.600000,116.300000,33.400000,115.500000,33.400000C114.900000,33.400000,114.400000,33.500000,114.100000,33.800000C113.700000,34.100000,113.500000,34.500000,113.500000,34.900000C113.500000,35.200000,113.600000,35.500000,113.800000,35.700000C114,35.900000,114.400000,36.200000,115,36.600000C115.700000,37,116.300000,37.400000,116.500000,37.900000C116.800000,38.300000,116.900000,38.800000,116.900000,39.400000C116.900000,40.300000,116.600000,41.100000,115.900000,41.600000C115.300000,42.200000,114.400000,42.400000,113.400000,42.400000C112.500000,42.400000,111.600000,42.200000,110.700000,41.800000L111.100000,40.600000C111.800000,41,112.600000,41.200000,113.300000,41.200000C113.900000,41.200000,114.500000,41,114.900000,40.700000C115.300000,40.400000,115.500000,39.900000,115.500000,39.400000C115.500000,39,115.400000,38.700000,115.100000,38.400000C114.900000,38.100000,114.500000,37.800000,113.900000,37.500000C113.100000,37.100000,112.600000,36.600000,112.300000,36.200000C112,35.800000,111.900000,35.300000,111.900000,34.800000C111.900000,34,112.200000,33.300000,112.900000,32.800000C113.600000,32.300000,114.400000,32,115.300000,32C116.400000,32.200000,117.100000,32.300000,117.800000,32.700000Z" fill="rgb(36,35,37)" stroke="none" stroke-width="1"/><path id="e36g70jgd1ck22" d="M120.100000,32.300000L127.400000,32.300000L127.200000,33.500000L124.300000,33.400000L122.400000,42.300000L121,42.300000L122.900000,33.400000L119.900000,33.500000L120.100000,32.300000Z" fill="rgb(36,35,37)" stroke="none" stroke-width="1"/><path id="e36g70jgd1ck23" d="M129.200000,32.300000L134.700000,32.300000L134.400000,33.500000L130.300000,33.500000L129.700000,36.500000L133.600000,36.500000L133.300000,37.700000L129.400000,37.700000L128.700000,41.200000L133,41.200000L132.700000,42.400000L127,42.400000L129.200000,32.300000Z" fill="rgb(36,35,37)" stroke="none" stroke-width="1"/><path id="e36g70jgd1ck24" d="M137,32.300000L139.200000,32.300000C140,37.100000,140.400000,40,140.500000,40.800000L140.500000,40.800000C140.800000,40.100000,142.500000,37.300000,145.500000,32.300000L147.800000,32.300000L145.700000,42.300000L144.300000,42.300000L145.400000,36.900000C145.700000,35.500000,146,34.300000,146.200000,33.300000L146.200000,33.300000C145.500000,34.600000,143.700000,37.600000,140.800000,42.300000L139.400000,42.300000C138.500000,37,138.100000,33.900000,138,33.200000L138,33.200000C137.800000,34.200000,137.600000,35.400000,137.200000,36.800000L136,42.200000L134.700000,42.200000L137,32.300000Z" fill="rgb(36,35,37)" stroke="none" stroke-width="1"/><path id="e36g70jgd1ck25" d="M153.600000,32.700000L153.200000,33.900000C152.700000,33.600000,152.100000,33.400000,151.300000,33.400000C150.700000,33.400000,150.200000,33.500000,149.900000,33.800000C149.500000,34.100000,149.400000,34.500000,149.400000,34.900000C149.400000,35.200000,149.500000,35.500000,149.700000,35.700000C149.900000,35.900000,150.300000,36.200000,150.900000,36.600000C151.600000,37,152.200000,37.400000,152.400000,37.900000C152.700000,38.300000,152.800000,38.800000,152.800000,39.400000C152.800000,40.300000,152.500000,41.100000,151.800000,41.600000C151.100000,42.100000,150.300000,42.400000,149.300000,42.400000C148.400000,42.400000,147.500000,42.200000,146.600000,41.800000L147,40.600000C147.700000,41,148.500000,41.200000,149.200000,41.200000C149.800000,41.200000,150.400000,41,150.800000,40.700000C151.200000,40.400000,151.400000,39.900000,151.400000,39.400000C151.400000,39,151.300000,38.700000,151,38.400000C150.700000,38.100000,150.400000,37.800000,149.800000,37.500000C149,37.100000,148.500000,36.600000,148.200000,36.200000C147.900000,35.800000,147.800000,35.300000,147.800000,34.800000C147.800000,34,148.100000,33.300000,148.800000,32.800000C149.500000,32.300000,150.300000,32,151.200000,32C152.100000,32.200000,152.800000,32.300000,153.600000,32.700000Z" fill="rgb(36,35,37)" stroke="none" stroke-width="1"/></g><g id="e36g70jgd1ck26"/><g id="e36g70jgd1ck27"/><g id="e36g70jgd1ck28"/><g id="e36g70jgd1ck29"/><g id="e36g70jgd1ck30"/><g id="e36g70jgd1ck31"/><g id="e36g70jgd1ck32"/><g id="e36g70jgd1ck33"/><g id="e36g70jgd1ck34"/><g id="e36g70jgd1ck35"/><g id="e36g70jgd1ck36"/><g id="e36g70jgd1ck37"/><g id="e36g70jgd1ck38"/><g id="e36g70jgd1ck39"/><g id="e36g70jgd1ck40"/><g id="e36g70jgd1ck41"/><g id="e36g70jgd1ck42"/></svg>